C:\GBW_MyPrograms\KinderuniversiteitApp\Resultaten\Ellis_v10102025\MrImpossible\MrImpossible_v1.mot
version=1
nRows=9
nColumns=29
inDegrees=yes
endheader
                time	         pelvis_tilt	           pelvis_tx	           pelvis_ty	       hip_flexion_l	       hip_flexion_r	        knee_angle_l	        knee_angle_r	       ankle_angle_l	       ankle_angle_r	    lumbar_extension	hamstrings_r/activation	bifemsh_r/activation	glut_max_r/activation	iliopsoas_r/activation	rect_fem_r/activation	  vasti_r/activation	gastroc_r/activation	 soleus_r/activation	tib_ant_r/activation	hamstrings_l/activation	bifemsh_l/activation	glut_max_l/activation	iliopsoas_l/activation	rect_fem_l/activation	  vasti_l/activation	gastroc_l/activation	 soleus_l/activation	tib_ant_l/activation	
          0.98783682	          0.49942621	          1.29739392	          0.89492234	        -18.11183959	         26.64569145	        -13.98158947	        -16.76211182	          5.64040779	         11.10071669	         -6.70757120	          0.16122941	          0.05000002	          0.05252967	          0.05000000	          0.05823201	          0.07469932	          0.05532230	          0.05176200	          0.23588284	          0.05000000	          0.10627032	          0.05000000	          0.38871420	          0.05000000	          0.05000000	          0.09198897	          0.14543656	          0.05000000	
          0.99771518	          0.45290185	          1.31405164	          0.89440377	        -17.33327543	         25.84033328	        -17.08275221	        -16.84404083	          4.25331522	         10.92618138	         -6.24239489	          0.14265048	          0.07470868	          0.06793863	          0.05000002	          0.05000003	          0.10690281	          0.06083466	          0.05823197	          0.22998869	          0.05000000	          0.09124739	          0.05683212	          0.35260784	          0.05000006	          0.05000000	          0.07898493	          0.12487690	          0.05000000	
          1.00759355	          0.41312472	          1.33074480	          0.89378308	        -16.37583151	         24.94255657	        -20.45925652	        -17.15576391	          2.66766864	         10.85937205	         -5.77750381	          0.12292100	          0.06781923	          0.12275912	          0.05000000	          0.05000000	          0.15155502	          0.05223476	          0.05000000	          0.25652974	          0.07452333	          0.07834819	          0.06026930	          0.30276137	          0.05000000	          0.05000000	          0.06781921	          0.10722365	          0.17957184	
          1.01747192	          0.37556192	          1.34702509	          0.89321662	        -15.25110082	         24.05510363	        -23.97635450	        -17.43003252	          1.48168959	         10.68219750	         -5.36510280	          0.10554425	          0.05823196	          0.13609881	          0.05000000	          0.05000000	          0.19516239	          0.05000000	          0.05000000	          0.26916348	          0.06398837	          0.06727249	          0.06011649	          0.28160604	          0.05000000	          0.05000000	          0.05823194	          0.09206596	          0.16750889	
          1.02735029	          0.33594756	          1.36256996	          0.89296462	        -14.02150486	         23.32536652	        -27.26982644	        -17.88576316	          1.48359281	         10.49854547	         -5.04112613	          0.09062397	          0.05000000	          0.11932391	          0.05000000	          0.05000000	          0.23976769	          0.05000000	          0.05000000	          0.27801068	          0.06646841	          0.06962488	          0.05161811	          0.24454614	          0.05000000	          0.05000000	          0.05000000	          0.07905104	          0.21468854	
          1.03722866	          0.29567414	          1.37738413	          0.89328787	        -12.71626634	         22.69426167	        -30.22085324	        -18.42667757	          1.80367004	         10.35886483	         -4.80514908	          0.07781290	          0.05000000	          0.10245566	          0.05000000	          0.05548995	          0.27874680	          0.05000000	          0.05000000	          0.28662008	          0.06567693	          0.10540621	          0.05000000	          0.21766986	          0.05000001	          0.05000000	          0.05000004	          0.06787598	          0.20783558	
          1.04710702	          0.25416475	          1.39160732	          0.89425004	        -11.36483892	         22.01033903	        -32.79413697	        -18.80123858	          2.30856499	         10.28236985	         -4.63744037	          0.07037022	          0.05000007	          0.08797200	          0.05000000	          0.05000000	          0.29744549	          0.05000000	          0.05000000	          0.28940482	          0.10753110	          0.14539573	          0.05000000	          0.18689894	          0.08647007	          0.05000000	          0.05324148	          0.05828068	          0.20309666	
          1.05698539	          0.21151093	          1.40536471	          0.89583267	         -9.98934420	         21.18251180	        -34.98224849	        -18.86864152	          2.92009908	         10.29623457	         -4.52159673	          0.06843895	          0.05350614	          0.07624819	          0.05000000	          0.05000000	          0.29131745	          0.05000000	          0.05000000	          0.28580838	          0.14281868	          0.17978216	          0.05000000	          0.16047794	          0.11331678	          0.05000000	          0.05718594	          0.05004182	          0.19268978	
          1.06686376	          0.16785572	          1.41873178	          0.89796328	         -8.60034516	         20.20982454	        -36.79789547	        -18.63695337	          3.50692452	         10.39384761	         -4.44826456	          0.06879969	          0.05290143	          0.06991553	          0.05000000	          0.05000000	          0.26664869	          0.05000000	          0.05000000	          0.27702428	          0.12477253	          0.21652602	          0.05000000	          0.13779195	          0.13591294	          0.05000000	          0.05172452	          0.05000000	          0.18976092	
